<?xml version="1.0" encoding="utf-8"?>
<!-- Generator: Adobe Illustrator 27.9.3, SVG Export Plug-In . SVG Version: 9.03 Build 53313)  -->
<svg version="1.1" id="Layer_1" xmlns="http://www.w3.org/2000/svg" xmlns:xlink="http://www.w3.org/1999/xlink" x="0px" y="0px"
	 viewBox="0 0 304 369.78" style="enable-background:new 0 0 304 369.78;" xml:space="preserve">
<style type="text/css">
	.st0{fill:none;stroke:#FFF7EC;stroke-width:3;stroke-miterlimit:10;}
	.st1{fill:#FFF7ED;stroke:#FFF7EC;stroke-miterlimit:10;}
	.st2{fill:#FFFFFF;stroke:#FFF7EC;stroke-width:3;stroke-miterlimit:10;}
	.st3{fill:none;stroke:#FFF7EC;stroke-width:2;stroke-miterlimit:10;}
</style>
<g>
	<g>
		<path class="st0" d="M219,291.67c0,9.9-8.1,18-18,18H99.67c-9.9,0-18-8.1-18-18V80.33c0-9.9,8.1-18,18-18H201c9.9,0,18,8.1,18,18
			V291.67z"/>
	</g>
	<g>
		<path class="st1" d="M172.21,69.8c0,3.96-3.24,7.2-7.2,7.2h-29.36c-3.96,0-7.2-3.24-7.2-7.2v-0.27c0-3.96,3.24-7.2,7.2-7.2h29.36
			c3.96,0,7.2,3.24,7.2,7.2V69.8z"/>
		<path class="st0" d="M172.21,69.8c0,3.96-3.24,7.2-7.2,7.2h-29.36c-3.96,0-7.2-3.24-7.2-7.2v-0.27c0-3.96,3.24-7.2,7.2-7.2h29.36
			c3.96,0,7.2,3.24,7.2,7.2V69.8z"/>
	</g>
	<path class="st2" d="M200.26,29.09"/>
	<g>
		<path class="st3" d="M113.81,4.27C75.76-1.88,8.44,66.83,15.97,102.11"/>
		<polyline class="st3" points="4.55,91.82 15.4,102.67 25.89,88.58 		"/>
	</g>
	<g>
		<path class="st3" d="M187.22,366.17c38.05,6.15,105.37-62.56,97.84-97.84"/>
		<polyline class="st3" points="296.47,278.63 285.62,267.77 275.13,281.86 		"/>
	</g>
</g>
</svg>
