<?xml version="1.0" encoding="utf-8"?>
<!-- Generator: Adobe Illustrator 27.9.3, SVG Export Plug-In . SVG Version: 9.03 Build 53313)  -->
<svg version="1.1" id="Layer_1" xmlns="http://www.w3.org/2000/svg" xmlns:xlink="http://www.w3.org/1999/xlink" x="0px" y="0px"
	 viewBox="0 0 235.74 292.36" style="enable-background:new 0 0 235.74 292.36;" xml:space="preserve">
<style type="text/css">
	.st0{fill:#FFFFFF;stroke:#000000;stroke-miterlimit:10;}
	.st1{fill:#FFF1D0;}
	.st2{fill:none;stroke:#000000;stroke-width:3;stroke-miterlimit:10;}
	.st3{fill:none;stroke:#000000;stroke-width:2;stroke-miterlimit:10;}
	.st4{fill:none;stroke:#000000;stroke-miterlimit:10;}
	.st5{fill:none;stroke:#000000;stroke-miterlimit:10;stroke-dasharray:0.4987,0.9975;}
	.st6{fill:none;stroke:#000000;stroke-miterlimit:10;stroke-dasharray:0.4927,0.9853;}
	.st7{fill:none;stroke:#000000;stroke-miterlimit:10;stroke-dasharray:0.5007,1.0014;}
	.st8{fill:none;}
	.st9{font-family:'PTMono-Bold';}
	.st10{font-size:14px;}
</style>
<path class="st0" d="M1.51,40.86"/>
<g>
	<path class="st1" d="M234.17,272.86c0,9.9-8.1,18-18,18H19.51c-9.9,0-18-8.1-18-18V19.53c0-9.9,8.1-18,18-18h196.67
		c9.9,0,18,8.1,18,18V128.2c0,9.9,0,26.1,0,36V272.86z"/>
	<path class="st2" d="M234.17,272.86c0,9.9-8.1,18-18,18H19.51c-9.9,0-18-8.1-18-18V19.53c0-9.9,8.1-18,18-18h196.67
		c9.9,0,18,8.1,18,18V128.2c0,9.9,0,26.1,0,36V272.86z"/>
</g>
<line class="st2" x1="1.51" y1="146.2" x2="234.17" y2="146.2"/>
<line class="st2" x1="1.51" y1="216.2" x2="234.17" y2="216.2"/>
<line class="st2" x1="1.51" y1="76.2" x2="234.17" y2="76.2"/>
<g>
	<path class="st2" d="M51.52,172.78c0,2.73-0.55,5.32-1.55,7.69c-0.75,1.77-1.75,3.41-2.96,4.88c-3.62,4.39-9.1,7.19-15.24,7.19
		c-10.91,0-19.75-8.84-19.75-19.75c0-10.91,8.84-19.75,19.75-19.75S51.52,161.88,51.52,172.78z"/>
	<line class="st2" x1="56.41" y1="193.36" x2="47.01" y2="185.35"/>
	<g>
		<path d="M70.22,208.67c0,0.01-0.01,0.01-0.02,0l-21.15-17.13c-0.01,0-0.01-0.01,0-0.02l4.21-5.19c0-0.01,0.01-0.01,0.02,0
			l21.15,17.13c0.01,0,0.01,0.01,0,0.02L70.22,208.67z"/>
		<path class="st2" d="M70.22,208.67c0,0.01-0.01,0.01-0.02,0l-21.15-17.13c-0.01,0-0.01-0.01,0-0.02l4.21-5.19
			c0-0.01,0.01-0.01,0.02,0l21.15,17.13c0.01,0,0.01,0.01,0,0.02L70.22,208.67z"/>
	</g>
</g>
<g>
	<g>
		<path d="M56.41,50.97c0,0.01-0.01,0.01-0.01,0.01H12.03c-0.01,0-0.01-0.01-0.01-0.01V30.76c0-0.01,0.01-0.01,0.01-0.01H56.4
			c0.01,0,0.01,0.01,0.01,0.01V50.97z"/>
		<path class="st2" d="M56.41,50.97c0,0.01-0.01,0.01-0.01,0.01H12.03c-0.01,0-0.01-0.01-0.01-0.01V30.76
			c0-0.01,0.01-0.01,0.01-0.01H56.4c0.01,0,0.01,0.01,0.01,0.01V50.97z"/>
	</g>
	<g>
		<path d="M70.71,24.08c0-0.01-0.01-0.01-0.01-0.01l-14.28,6.67c-0.01,0-0.01,0.01-0.01,0.02v20.21c0,0.01,0.01,0.02,0.01,0.02
			l14.28,7.47c0.01,0,0.01,0,0.01-0.01V24.08z"/>
		<path class="st2" d="M70.71,24.08c0-0.01-0.01-0.01-0.01-0.01l-14.28,6.67c-0.01,0-0.01,0.01-0.01,0.02v20.21
			c0,0.01,0.01,0.02,0.01,0.02l14.28,7.47c0.01,0,0.01,0,0.01-0.01V24.08z"/>
	</g>
	<g>
		<path d="M41.83,31.55c0,0.01-0.01,0.01-0.01,0.01h-7.59c-0.01,0-0.01-0.01-0.01-0.01v-3.61c0-0.01,0.01-0.01,0.01-0.01h7.59
			c0.01,0,0.01,0.01,0.01,0.01V31.55z"/>
		<path class="st2" d="M41.83,31.55c0,0.01-0.01,0.01-0.01,0.01h-7.59c-0.01,0-0.01-0.01-0.01-0.01v-3.61
			c0-0.01,0.01-0.01,0.01-0.01h7.59c0.01,0,0.01,0.01,0.01,0.01V31.55z"/>
	</g>
</g>
<path class="st3" d="M-23.53,92.53"/>
<path class="st3" d="M-29.32,98.72"/>
<g>
	<g>
		<path class="st2" d="M27.08,133.9c-0.01,0-0.01-0.01-0.01-0.01V89.52c0-0.01,0.01-0.01,0.01-0.01h34.09
			c0.01,0,0.01,0.01,0.01,0.01v44.36c0,0.01-0.01,0.01-0.01,0.01H27.08z"/>
	</g>
	<ellipse class="st3" cx="27.06" cy="96.44" rx="4.58" ry="2.74"/>
	<ellipse class="st3" cx="27.06" cy="118.48" rx="4.58" ry="2.74"/>
	<ellipse class="st3" cx="27.06" cy="113.69" rx="4.58" ry="2.74"/>
	<ellipse class="st3" cx="27.06" cy="109.53" rx="4.58" ry="2.74"/>
	<ellipse class="st3" cx="27.06" cy="91.62" rx="4.58" ry="2.74"/>
	<ellipse class="st3" cx="27.06" cy="105.06" rx="4.58" ry="2.74"/>
	<ellipse class="st3" cx="27.06" cy="100.58" rx="4.58" ry="2.74"/>
	<ellipse class="st3" cx="27.06" cy="131.75" rx="4.58" ry="2.74"/>
	<ellipse class="st3" cx="27.06" cy="127.65" rx="4.58" ry="2.74"/>
	<ellipse class="st3" cx="27.06" cy="123.01" rx="4.58" ry="2.74"/>
</g>
<g>
	<g>
		<path class="st3" d="M71.28,278.01c0.01,0,0.01,0,0.01-0.01v-42.69c0-0.01-0.01-0.02-0.01-0.02l-14.46-5.4c-0.01,0-0.02,0-0.03,0
			l-14.93,4.44c-0.01,0-0.02,0-0.03,0l-14.88-5.08c-0.01,0-0.02,0-0.03,0l-14.52,6.04c-0.01,0-0.01,0.01-0.01,0.02l0,42.69
			c0,0.01,0.01,0.01,0.01,0.01l14.52-5.2c0.01,0,0.02,0,0.03,0l14.89,6.4c0.01,0,0.02,0,0.03,0l14.54-7.09c0.01,0,0.02,0,0.03,0
			L71.28,278.01z"/>
	</g>
	<g>
		<g>
			<line class="st4" x1="41.84" y1="234.34" x2="41.84" y2="234.59"/>
			<line class="st5" x1="41.84" y1="235.58" x2="41.86" y2="278.48"/>
			<line class="st4" x1="41.86" y1="278.97" x2="41.86" y2="279.22"/>
		</g>
	</g>
	<g>
		<g>
			<line class="st4" x1="56.58" y1="229.25" x2="56.58" y2="229.5"/>
			<line class="st6" x1="56.57" y1="230.48" x2="56.43" y2="271.37"/>
			<line class="st4" x1="56.43" y1="271.87" x2="56.43" y2="272.12"/>
		</g>
	</g>
	<g>
		<g>
			<line class="st4" x1="26.94" y1="229.25" x2="26.94" y2="229.5"/>
			<line class="st7" x1="26.94" y1="230.5" x2="26.94" y2="272.06"/>
			<line class="st4" x1="26.94" y1="272.56" x2="26.94" y2="272.81"/>
		</g>
	</g>
</g>
<rect x="110.41" y="34.26" class="st8" width="84.1" height="14"/>
<text transform="matrix(1 0 0 1 110.4115 44.0634)" class="st9 st10">flashlight</text>
<rect x="117.5" y="105.7" class="st8" width="69.93" height="13.14"/>
<text transform="matrix(1 0 0 1 117.4982 115.5019)" class="st9 st10">notebook</text>
<rect x="84.13" y="174.05" class="st8" width="136.67" height="12.77"/>
<text transform="matrix(1 0 0 1 84.1278 183.8456)" class="st9 st10">magnifying glass</text>
<rect x="109.86" y="247.94" class="st8" width="85.2" height="12.6"/>
<text transform="matrix(1 0 0 1 109.8636 257.736)" class="st9 st10">floor plan</text>
</svg>
